<?xml version="1.0" encoding="UTF-8"?>
<svg width="18px" height="18px" viewBox="0 0 18 18" version="1.1" xmlns="http://www.w3.org/2000/svg" xmlns:xlink="http://www.w3.org/1999/xlink">
    <!-- Generator: Sketch 44.1 (41455) - http://www.bohemiancoding.com/sketch -->
    <title>check off</title>
    <desc>Created with Sketch.</desc>
    <defs></defs>
    <g id="Material-Design-Stickersheet" stroke="none" stroke-width="1" fill="none" fill-rule="evenodd" opacity="0.54">
        <g id="components" transform="translate(-2172.000000, -1050.000000)" fill="#010101">
            <g id="switches-+-sliders" transform="translate(2065.000000, 890.000000)">
                <g id="switches-light" transform="translate(0.000000, 41.000000)">
                    <g id="Material/Light/Checkbox-off" transform="translate(104.000000, 116.000000)">
                        <path d="M19,5 L19,19 L5,19 L5,5 L19,5 L19,5 Z M19,3 L5,3 C3.9,3 3,3.9 3,5 L3,19 C3,20.1 3.9,21 5,21 L19,21 C20.1,21 21,20.1 21,19 L21,5 C21,3.9 20.1,3 19,3 L19,3 L19,3 Z" id="Shape"></path>
                    </g>
                </g>
            </g>
        </g>
    </g>
</svg>