<?xml version="1.0" encoding="UTF-8"?>
<svg width="16px" height="16px" viewBox="0 0 16 16" version="1.1" xmlns="http://www.w3.org/2000/svg" xmlns:xlink="http://www.w3.org/1999/xlink">
    <!-- Generator: Sketch 44.1 (41455) - http://www.bohemiancoding.com/sketch -->
    <title>female-2</title>
    <desc>Created with Sketch.</desc>
    <defs></defs>
    <g id="Page-1" stroke="none" stroke-width="1" fill="none" fill-rule="evenodd">
        <g id="UI" transform="translate(-571.000000, -743.000000)" fill-rule="nonzero" fill="#009D2F">
            <g id="male" transform="translate(400.000000, 711.000000)">
                <g id="female-2" transform="translate(171.000000, 32.000000)">
                    <path d="M9.73540918,6.38722555e-05 C6.29882635,6.38722555e-05 3.50275449,2.79600798 3.50275449,6.23271856 C3.50275449,7.6224511 3.97451497,8.9828024 4.83334132,10.0762954 L2.73322156,12.1766707 L1.27744511,10.7206387 C1.13615968,10.5792255 0.94811976,10.5014291 0.748199601,10.5014291 C0.548279441,10.5014291 0.36049501,10.5790978 0.219081836,10.7206387 C0.0777964072,10.8620519 0,11.0499641 0,11.2497565 C0,11.4495489 0.0777964072,11.6375888 0.219209581,11.7787465 L1.67511377,13.2347784 L0.219209581,14.6906826 C0.0779241517,14.8318403 0,15.0198802 0,15.2198004 C0,15.4195928 0.0777964072,15.6076327 0.219209581,15.7487904 C0.36049501,15.8902036 0.548407186,15.9681277 0.748327345,15.9681277 C0.948247505,15.9681277 1.13615968,15.8903313 1.27757285,15.7487904 L2.7333493,14.293014 L4.18938124,15.7487904 C4.33053892,15.8902036 4.5184511,15.9681277 4.718499,15.9681277 C4.91829142,15.9681277 5.10620359,15.8903313 5.24761677,15.7487904 C5.38902994,15.6076327 5.46695409,15.4195928 5.46695409,15.2198004 C5.46695409,15.0198802 5.38915768,14.8318403 5.24761677,14.6906826 L3.79171257,13.2347784 L5.89183234,11.1346587 C6.98545309,11.993485 8.34567665,12.4652455 9.73553693,12.4652455 C13.1722475,12.4652455 15.9681916,9.66917365 15.9681916,6.23271856 C15.9680639,2.79600798 13.1721198,6.38722555e-05 9.73540918,6.38722555e-05 Z M9.73540918,10.9685908 C7.12405589,10.9685908 4.99940918,8.8441996 4.99940918,6.23271856 C4.99940918,3.62123752 7.12405589,1.49659082 9.73540918,1.49659082 C12.3468902,1.49659082 14.4715369,3.62123752 14.4715369,6.23271856 C14.4715369,8.8441996 12.3468902,10.9685908 9.73540918,10.9685908 Z" id="Shape"></path>
                </g>
            </g>
        </g>
    </g>
</svg>