<?xml version="1.0" encoding="UTF-8"?>
<svg width="16px" height="16px" viewBox="0 0 16 16" version="1.1" xmlns="http://www.w3.org/2000/svg" xmlns:xlink="http://www.w3.org/1999/xlink">
    <!-- Generator: Sketch 44.1 (41455) - http://www.bohemiancoding.com/sketch -->
    <title>male-2</title>
    <desc>Created with Sketch.</desc>
    <defs></defs>
    <g id="Page-1" stroke="none" stroke-width="1" fill="none" fill-rule="evenodd">
        <g id="UI" transform="translate(-420.000000, -743.000000)" fill-rule="nonzero" fill="#4b4b4b">
            <g id="male" transform="translate(400.000000, 711.000000)">
                <g id="male-2" transform="translate(20.000000, 32.000000)">
                    <path d="M15.977344,0.613888 C15.974144,0.596992 15.965056,0.580736 15.959808,0.564608 L15.949184,0.535552 C15.943296,0.514816 15.936256,0.494208 15.927936,0.4736 C15.919616,0.453632 15.908864,0.435072 15.898496,0.416512 L15.88352,0.389376 C15.875968,0.374528 15.868032,0.35968 15.858432,0.34496 C15.803136,0.2624 15.73312,0.19264 15.650688,0.137344 C15.63712,0.128256 15.622656,0.120832 15.60832,0.113408 L15.584,0.100224 C15.563904,0.088832 15.543808,0.077824 15.52192,0.06848 C15.503232,0.060928 15.484288,0.055296 15.465088,0.04992 L15.435264,0.04096 C15.417728,0.035072 15.400064,0.029696 15.38176,0.025984 C15.34016,0.017792 15.296384,0.009728 15.25056,0.008832 C15.24544,0.00832 15.239552,0.00448 15.235712,0.00448 L12.117632,0.00448 C11.704448,0.00448 11.368448,0.341376 11.368448,0.754432 C11.368448,1.167616 11.704448,1.504384 12.117632,1.504384 L13.427328,1.504384 L10.086656,4.847232 C8.992,3.987456 7.630208,3.516544 6.238976,3.516544 C2.79872,3.516416 0,6.315904 0,9.75616 C0,13.19616 2.79872,15.995392 6.238976,15.995392 C9.679232,15.995392 12.47808,13.196672 12.47808,9.756416 C12.47808,8.365312 12.012672,7.003648 11.152896,5.908864 L14.499968,2.568832 L14.499968,3.878528 C14.499968,4.291584 14.836864,4.627712 15.24992,4.627712 C15.662976,4.627712 15.999872,4.291712 15.999872,3.878528 L15.999872,0.760576 C16,0.712064 15.987072,0.662656 15.977344,0.613888 Z M6.238976,14.497408 C3.624832,14.497408 1.498112,12.370688 1.498112,9.756672 C1.498112,7.1424 3.624832,5.01568 6.238976,5.01568 C8.852992,5.01568 10.979968,7.1424 10.979968,9.756672 C10.97984,12.370688 8.852992,14.497408 6.238976,14.497408 Z" id="Shape"></path>
                </g>
            </g>
        </g>
    </g>
</svg>