<?xml version="1.0" encoding="utf-8"?>
<!-- Generator: Adobe Illustrator 21.0.1, SVG Export Plug-In . SVG Version: 6.00 Build 0)  -->
<svg version="1.1" id="Layer_1" xmlns="http://www.w3.org/2000/svg" xmlns:xlink="http://www.w3.org/1999/xlink" x="0px" y="0px"
	 viewBox="0 0 20 20" style="enable-background:new 0 0 20 20;" xml:space="preserve">
<title>radio on</title>
<desc>Created with Sketch.</desc>
<g id="Material-Design-Stickersheet">
	<g id="components" transform="translate(-2283.000000, -985.000000)">
		<g id="switches-_x2B_-sliders" transform="translate(2065.000000, 890.000000)">
			<g id="switches-light" transform="translate(0.000000, 41.000000)">
				<g id="Material_x2F_Light_x2F_Radio-button-on" transform="translate(216.000000, 52.000000)">
					<path id="Shape" d="M12,7c-2.8,0-5,2.2-5,5s2.2,5,5,5s5-2.2,5-5S14.8,7,12,7L12,7z M12,2C6.5,2,2,6.5,2,12s4.5,10,10,10
						s10-4.5,10-10S17.5,2,12,2L12,2z M12,20c-4.4,0-8-3.6-8-8s3.6-8,8-8s8,3.6,8,8S16.4,20,12,20L12,20z"/>
				</g>
			</g>
		</g>
	</g>
</g>
</svg>
