<svg width="12px" height="12px" viewBox="0 0 12 12" version="1.1" xmlns="http://www.w3.org/2000/svg" xmlns:xlink="http://www.w3.org/1999/xlink">
    <path d="M8.6875,7.75 L8.19375,7.75 L8.01875,7.58125 C8.63125,6.86875 9,5.94375 9,4.9375 C9,2.69375 7.18125,0.875 4.9375,0.875 C2.69375,0.875 0.875,2.69375 0.875,4.9375 C0.875,7.18125 2.69375,9 4.9375,9 C5.94375,9 6.86875,8.63125 7.58125,8.01875 L7.75,8.19375 L7.75,8.6875 L10.875,11.80625 L11.80625,10.875 L8.6875,7.75 Z M4.9375,7.75 C3.38125,7.75 2.125,6.49375 2.125,4.9375 C2.125,3.38125 3.38125,2.125 4.9375,2.125 C6.49375,2.125 7.75,3.38125 7.75,4.9375 C7.75,6.49375 6.49375,7.75 4.9375,7.75 Z"></path>
</svg>
